<?xml version="1.0" encoding="utf-8"?>
<svg viewBox="0 0 500 500" xmlns="http://www.w3.org/2000/svg">
  <defs>
    <clipPath id="presentation_clip_path" clipPathUnits="userSpaceOnUse">
      <rect x="0" y="0" width="20000" height="20000"/>
    </clipPath>
  </defs>
  <g class="SlideGroup" transform="matrix(0.027613, 0, 0, 0.027658, -26.618446, -26.219557)" style="">
    <g>
      <g id="id1" class="Slide" clip-path="url(#presentation_clip_path)">
        <g class="Page">
          <g class="Group">
            <g class="com.sun.star.drawing.CustomShape">
              <g id="id3">
                <rect class="BoundingBox" stroke="none" fill="none" x="964" y="948" width="18071" height="18078"/>
                <g>
                  <defs>
                    <linearGradient id="gradient1" x1="3857" y1="-652" x2="16141" y2="20624" gradientUnits="userSpaceOnUse">
                      <stop offset="0" style="stop-color:rgb(255,255,255)"/>
                      <stop offset="1" style="stop-color:rgb(51,0,0)"/>
                    </linearGradient>
                  </defs>
                  <path style="fill:url(#gradient1)" d="M 10012,995 L 10953,1041 11862,1174 12734,1390 13567,1685 14356,2057 15096,2499 15784,3009 16417,3583 16990,4217 17499,4906 17940,5647 18310,6436 18604,7269 18818,8142 18949,9051 18993,9992 18947,10933 18813,11842 18596,12715 18300,13547 17928,14336 17485,15076 16974,15765 16399,16398 15765,16971 15075,17480 14333,17922 13544,18292 12710,18586 11837,18801 10928,18933 9986,18977 9045,18931 8136,18798 7264,18582 6431,18287 5642,17915 4902,17473 4214,16963 3581,16389 3008,15755 2499,15066 2058,14325 1688,13536 1394,12703 1180,11830 1049,10921 1005,9980 1051,9039 1185,8130 1402,7257 1698,6425 2070,5636 2513,4896 3024,4207 3599,3574 4233,3001 4923,2492 5665,2050 6454,1680 7288,1386 8161,1171 9070,1039 10012,995 Z"/>
                </g>
                <path fill="none" stroke="rgb(51,0,0)" stroke-width="81" stroke-linejoin="round" d="M 10012,995 C 15111,999 19000,4894 18993,9992 18986,15090 15085,18981 9986,18977 4887,18973 998,15078 1005,9980 1012,4882 4913,991 10012,995 Z"/>
              </g>
            </g>
            <g class="com.sun.star.drawing.ClosedBezierShape">
              <g id="id4">
                <rect class="BoundingBox" stroke="none" fill="none" x="7091" y="2243" width="4765" height="10756"/>
                <g>
                  <defs>
                    <linearGradient id="gradient2" x1="9449" y1="2243" x2="9449" y2="12894" gradientUnits="userSpaceOnUse">
                      <stop offset="0" style="stop-color:rgb(197,0,11)"/>
                      <stop offset="1" style="stop-color:rgb(255,153,0)"/>
                    </linearGradient>
                  </defs>
                  <path style="fill:url(#gradient2)" d="M 7457,7762 L 7606,7400 7777,7050 8161,6376 8968,5078 9314,4423 9455,4087 9569,3742 9651,3388 9696,3021 9699,2640 9656,2243 10094,2522 10454,2813 10741,3115 10960,3428 11120,3750 11227,4080 11286,4417 11304,4761 11288,5110 11244,5464 11098,6180 10755,7621 10730,7802 10723,7989 10754,8374 10837,8773 10956,9179 11534,10782 11637,11153 11696,11502 11705,11667 11699,11824 11675,11973 11631,12114 11567,12245 11480,12367 11369,12478 11231,12578 11066,12667 10872,12743 10647,12806 10389,12856 10121,12886 9865,12894 9622,12881 9391,12847 9173,12794 8967,12722 8773,12632 8591,12526 8421,12405 8263,12270 7980,11960 7743,11605 7549,11214 7399,10795 7290,10355 7222,9904 7194,9449 7205,8999 7253,8563 7337,8147 7457,7762 Z"/>
                </g>
              </g>
            </g>
            <g class="com.sun.star.drawing.CustomShape">
              <g id="id5">
                <rect class="BoundingBox" stroke="none" fill="none" x="6793" y="13307" width="6551" height="5690"/>
                <path fill="rgb(221,221,221)" stroke="none" d="M 10068,13307 C 8281,13307 6793,13630 6793,14018 L 6793,18284 C 6793,18672 8281,18996 10068,18996 11854,18996 13343,18672 13343,18284 L 13343,14018 C 13343,13630 11854,13307 10068,13307 L 10068,13307 Z M 6793,13307 L 6793,13307 Z M 13343,18996 L 13343,18996 Z"/>
                <path fill="rgb(235,235,235)" stroke="none" d="M 10068,13307 C 8281,13307 6793,13630 6793,14018 6793,14406 8281,14729 10068,14729 11854,14729 13343,14406 13343,14018 13343,13630 11854,13307 10068,13307 L 10068,13307 Z M 6793,13307 L 6793,13307 Z M 13343,18996 L 13343,18996 Z"/>
              </g>
            </g>
            <g class="com.sun.star.drawing.OpenBezierShape">
              <g id="id6">
                <rect class="BoundingBox" stroke="none" fill="none" x="10015" y="11053" width="263" height="3208"/>
                <path fill="none" stroke="rgb(28,28,28)" stroke-width="106" stroke-linejoin="round" d="M 10069,11106 C 10396,12032 10102,14206 10102,14206"/>
              </g>
            </g>
            <g class="com.sun.star.drawing.CustomShape">
              <g id="id7">
                <rect class="BoundingBox" stroke="none" fill="none" x="964" y="948" width="18071" height="18078"/>
                <path fill="none" stroke="rgb(51,0,0)" stroke-width="81" stroke-linejoin="round" d="M 10012,995 C 15111,999 19000,4894 18993,9992 18986,15090 15085,18981 9986,18977 4887,18973 998,15078 1005,9980 1012,4882 4913,991 10012,995 Z"/>
              </g>
            </g>
          </g>
        </g>
      </g>
    </g>
  </g>
  <rect fill="#512BD4" style="stroke: rgb(186, 218, 85); stroke-miterlimit: 25; stroke-width: 0px;" x="274.55" y="273.282" width="225.45" height="225.827" rx="50" ry="50"/>
  <path d="M 314.732 417.561 C 313.137 417.561 311.782 417.029 310.668 415.963 C 309.55 414.874 308.993 413.577 308.993 412.076 C 308.993 410.549 309.55 409.238 310.668 408.146 C 311.782 407.056 313.137 406.511 314.732 406.511 C 316.352 406.511 317.72 407.056 318.837 408.146 C 319.978 409.238 320.55 410.549 320.55 412.076 C 320.55 413.577 319.978 414.874 318.837 415.963 C 317.72 417.029 316.352 417.561 314.732 417.561 Z" fill="white" style=""/>
  <path d="M 378.458 416.661 L 368.095 416.661 L 340.797 373.521 C 340.104 372.429 339.535 371.296 339.082 370.123 L 338.844 370.123 C 339.057 371.378 339.162 374.066 339.162 378.186 L 339.162 416.661 L 329.997 416.661 L 329.997 357.968 L 341.035 357.968 L 367.417 400.084 C 368.535 401.831 369.253 403.032 369.57 403.686 L 369.73 403.686 C 369.465 402.132 369.33 399.498 369.33 395.786 L 369.33 357.968 L 378.458 357.968 L 378.458 416.661 Z" fill="white" style=""/>
  <path d="M 423.092 416.661 L 391.012 416.661 L 391.012 357.968 L 421.817 357.968 L 421.817 366.236 L 400.498 366.236 L 400.498 382.854 L 420.144 382.854 L 420.144 391.078 L 400.498 391.078 L 400.498 408.434 L 423.092 408.434 L 423.092 416.661 Z" fill="white" style=""/>
  <path d="M 468.688 366.236 L 452.268 366.236 L 452.268 416.661 L 442.782 416.661 L 442.782 366.236 L 426.402 366.236 L 426.402 357.968 L 468.688 357.968 L 468.688 366.236 Z" fill="white" style=""/>
</svg>